# xmcd
#
# Track frame offsets: 
#        182
#        15785
#        26817
#        52345
#        69962
#        91752
#        108122
#        132807
#        155102
#        174815
#        190235
#        206735
#
# Disc length: 3096 seconds
#
# Revision: 2
# Processed by: cddbd v1.4PL0 Copyright (c) Steve Scherf et al.
# Submitted via: ExactAudioCopy v0.90b4
#
DISCID=950c160c
DTITLE=Jack Ingram - Live At Adair's
DYEAR=1900
DGENRE=Country
TTITLE0=Attitude and Driving
TTITLE1=Able Bodied Man
TTITLE2=Elmo Lincoln
TTITLE3=Run Away With You
TTITLE4=These Days
TTITLE5=Politics and Religion
TTITLE6=Mary Go Round
TTITLE7=Making Plans
TTITLE8=She's Gone
TTITLE9=I'll Catch You When You Fall
TTITLE10=Hang Down Your Head
TTITLE11=Make My Heart Flutter
EXTD=
EXTT0=
EXTT1=
EXTT2=
EXTT3=
EXTT4=
EXTT5=
EXTT6=
EXTT7=
EXTT8=
EXTT9=
EXTT10=
EXTT11=
PLAYORDER=
